<svg width="100" height="38" viewBox="0 0 100 38" fill="none" xmlns="http://www.w3.org/2000/svg">
<path d="M29.5454 8.33813L30.4521 28.6526H26.1794L25.8626 20.9028L15.7461 35.9911L11.3548 21.8287L4.63372 37.8056H0L11.9244 9.45887L17.1561 26.2799L29.5454 8.33813Z" fill="white"/>
<path d="M19.9868 0C30.3167 0 38.6907 8.38998 38.6907 18.7395C38.6907 26.5706 33.8964 33.2797 27.088 36.0812L27.088 33.4329C32.5272 30.7893 36.2773 25.2032 36.2773 18.7395C36.2773 9.7254 28.9838 2.418 19.9868 2.418C10.9898 2.418 3.69631 9.7254 3.69631 18.7395C3.69631 22.5064 4.96996 25.9752 7.10934 28.7373L5.45995 28.7371L5.45966 30.5442C2.84802 27.322 1.2829 23.2139 1.2829 18.7395C1.2829 8.38998 9.65692 0 19.9868 0Z" fill="white"/>
<path fill-rule="evenodd" clip-rule="evenodd" d="M27.2924 33.3524L26.1596 32.7839H23.6833V36.574H26.1596L27.2924 35.9911V33.3524Z" fill="white"/>
<path d="M23.6837 33.3525H21.2202V34.3001H23.6837V33.3525Z" fill="white"/>
<path d="M23.6837 35.0581H21.2202V36.0056H23.6837V35.0581Z" fill="white"/>
<path d="M49.5506 15.3417L48.7312 13.4891L48.3571 15.3417L47.1458 21.4516H45.1685L47.8761 8.35889H48.0899L51.6882 15.4307L52.757 17.7999L53.8258 15.4307L57.3528 8.35889H57.5487L60.3632 21.4516H58.4038L57.0856 15.3417L56.6937 13.4891L55.9812 15.3417L52.8104 21.4516H52.7035L49.5506 15.3417ZM65.4806 21.6298C64.7443 21.6298 64.0644 21.4546 63.441 21.1043C62.8175 20.7539 62.3187 20.2552 61.9446 19.608C61.5706 18.9607 61.3835 18.2037 61.3835 17.3368C61.3835 16.4817 61.5468 15.7336 61.8734 15.0923C62.2 14.451 62.6661 13.9522 63.2717 13.596C63.8774 13.2397 64.5899 13.0616 65.4093 13.0616C65.8843 13.0616 66.3297 13.1447 66.7453 13.311C67.161 13.4772 67.5113 13.6821 67.7963 13.9255C68.0813 14.169 68.2713 14.4095 68.3663 14.647L68.4019 13.2753H70.2367V21.4516H68.4198L68.3841 20.0088C68.1822 20.4363 67.8141 20.8133 67.2797 21.1399C66.7453 21.4665 66.1456 21.6298 65.4806 21.6298ZM65.8012 20.0266C66.4781 20.0266 67.0481 19.792 67.5113 19.3229C67.9744 18.8539 68.206 18.2393 68.206 17.4793V17.3546C68.206 16.8439 68.0991 16.3867 67.8854 15.983C67.6716 15.5792 67.3807 15.2645 67.0125 15.0389C66.6444 14.8132 66.2406 14.7004 65.8012 14.7004C65.0412 14.7004 64.4533 14.9468 64.0377 15.4397C63.6221 15.9325 63.4142 16.5708 63.4142 17.3546C63.4142 18.1502 63.6191 18.7945 64.0288 19.2873C64.4385 19.7801 65.0293 20.0266 65.8012 20.0266ZM72.3535 13.2753H74.2774V14.8785C74.4674 14.3323 74.7761 13.8929 75.2036 13.5604C75.6312 13.2278 76.1181 13.0616 76.6643 13.0616C77.0443 13.0616 77.3056 13.0972 77.4481 13.1685L77.1809 15.1101C77.074 15.0389 76.8425 15.0032 76.4862 15.0032C75.9281 15.0032 75.4204 15.1814 74.9632 15.5376C74.506 15.8939 74.2774 16.4639 74.2774 17.2477V21.4516H72.3535V13.2753ZM78.4644 13.2753H80.6555L82.419 16.9627L82.989 18.4412L83.559 16.9627L85.3047 13.2753H87.4423L83.1493 21.4516H82.7752L78.4644 13.2753ZM92.3231 21.6298C91.3493 21.6298 90.5359 21.4368 89.8827 21.0508C89.2296 20.6649 88.7486 20.1483 88.4399 19.5011C88.1311 18.8539 87.9767 18.1443 87.9767 17.3724C87.9767 16.5055 88.1578 15.7454 88.52 15.0923C88.8822 14.4391 89.3839 13.9374 90.0252 13.5871C90.6665 13.2367 91.3909 13.0616 92.1984 13.0616C93.4573 13.0616 94.3924 13.4089 95.004 14.1037C95.6156 14.7984 95.9214 15.7751 95.9214 17.0339C95.9214 17.3546 95.9036 17.6871 95.868 18.0315H89.9896C90.1202 18.7559 90.3785 19.2784 90.7645 19.599C91.1504 19.9197 91.6878 20.08 92.3766 20.08C92.9466 20.08 93.4157 20.0325 93.7838 19.9375C94.152 19.8425 94.4904 19.7119 94.7992 19.5456L95.387 20.9172C95.0901 21.1072 94.6864 21.2735 94.1757 21.416C93.6651 21.5585 93.0475 21.6298 92.3231 21.6298ZM94.051 16.6955C94.0629 15.9592 93.9026 15.4397 93.5701 15.1368C93.2376 14.834 92.7625 14.6826 92.145 14.6826C90.8981 14.6826 90.1796 15.3535 89.9896 16.6955H94.051ZM98.0946 8.35889H100.001V21.4516H98.0946V8.35889ZM44.978 25.3814H46.2913C46.616 25.3814 46.8604 25.4817 47.0243 25.6822C47.1883 25.8828 47.2703 26.1264 47.2703 26.4129C47.2703 26.6994 47.1883 26.9422 47.0243 27.1411C46.8604 27.3401 46.616 27.4396 46.2913 27.4396H45.4269V28.6717H44.978V25.3814ZM46.2865 25.7968H45.4269V27.0241H46.2626C46.4505 27.0241 46.5913 26.9644 46.6853 26.8451C46.7792 26.7257 46.8261 26.5816 46.8261 26.4129C46.8261 26.2441 46.7808 26.0993 46.69 25.9783C46.5993 25.8573 46.4648 25.7968 46.2865 25.7968ZM48.0554 27.0337C48.0554 26.5625 48.2161 26.163 48.5377 25.835C48.8592 25.5071 49.2524 25.3432 49.7172 25.3432C50.1852 25.3432 50.5808 25.5071 50.9039 25.835C51.2271 26.163 51.3886 26.5625 51.3886 27.0337C51.3886 27.5017 51.2271 27.8996 50.9039 28.2276C50.5808 28.5555 50.1852 28.7194 49.7172 28.7194C49.2524 28.7194 48.8592 28.5555 48.5377 28.2276C48.2161 27.8996 48.0554 27.5017 48.0554 27.0337ZM48.8529 26.1407C48.6173 26.3858 48.4995 26.6835 48.4995 27.0337C48.4995 27.3839 48.6165 27.6808 48.8505 27.9243C49.0845 28.1679 49.3734 28.2896 49.7172 28.2896C50.0611 28.2896 50.3508 28.1679 50.5863 27.9243C50.8219 27.6808 50.9397 27.3839 50.9397 27.0337C50.9397 26.6835 50.8219 26.3858 50.5863 26.1407C50.3508 25.8955 50.0611 25.773 49.7172 25.773C49.3766 25.773 49.0884 25.8955 48.8529 26.1407ZM55.7123 25.3814H56.1899L55.0772 28.6717H54.6904L54.1078 26.6182L53.53 28.6717H53.1431L52.0305 25.3814H52.508L53.3342 27.9554L53.9407 25.8255H54.2797L54.8862 27.9554L55.7123 25.3814ZM57.1087 25.3814H59.0571V25.7968H57.5528V26.8474H58.8661V27.2629H57.5528V28.2562H59.1049V28.6717H57.1087V25.3814ZM61.5852 27.4253L62.4639 28.6717H61.9243L61.0743 27.4396H60.654V28.6717H60.2051V25.3814H61.4706C61.7954 25.3814 62.0389 25.4817 62.2013 25.6822C62.3636 25.8828 62.4448 26.1264 62.4448 26.4129C62.4448 26.6803 62.374 26.9095 62.2323 27.1005C62.0906 27.2916 61.875 27.3998 61.5852 27.4253ZM61.4563 25.7968H60.654V27.0241H61.4372C61.625 27.0241 61.7635 26.9652 61.8527 26.8474C61.9418 26.7297 61.9864 26.5848 61.9864 26.4129C61.9864 26.2441 61.9426 26.0993 61.8551 25.9783C61.7675 25.8573 61.6346 25.7968 61.4563 25.7968ZM67.759 25.7777L67.439 26.0738C67.2098 25.8701 66.9456 25.7682 66.6463 25.7682C66.3057 25.7682 66.0175 25.8916 65.7819 26.1383C65.5464 26.385 65.4286 26.6835 65.4286 27.0337C65.4286 27.3839 65.5464 27.6816 65.7819 27.9267C66.0175 28.1718 66.3057 28.2944 66.6463 28.2944C66.9456 28.2944 67.1923 28.214 67.3865 28.0533C67.5807 27.8925 67.6842 27.6768 67.6969 27.4062H66.7609V27.0194H68.2031C68.2031 27.5829 68.0646 28.0071 67.7876 28.292C67.5107 28.577 67.1302 28.7194 66.6463 28.7194C66.1815 28.7194 65.7883 28.5555 65.4668 28.2276C65.1452 27.8996 64.9844 27.5017 64.9844 27.0337C64.9844 26.5625 65.1452 26.163 65.4668 25.835C65.7883 25.5071 66.1815 25.3432 66.6463 25.3432C67.0761 25.3432 67.447 25.488 67.759 25.7777ZM70.588 27.4253L71.4667 28.6717H70.9271L70.077 27.4396H69.6568V28.6717H69.2079V25.3814H70.4734C70.7981 25.3814 71.0417 25.4817 71.204 25.6822C71.3664 25.8828 71.4476 26.1264 71.4476 26.4129C71.4476 26.6803 71.3767 26.9095 71.2351 27.1005C71.0934 27.2916 70.8777 27.3998 70.588 27.4253ZM70.4591 25.7968H69.6568V27.0241H70.44C70.6278 27.0241 70.7663 26.9652 70.8554 26.8474C70.9446 26.7297 70.9891 26.5848 70.9891 26.4129C70.9891 26.2441 70.9454 26.0993 70.8578 25.9783C70.7703 25.8573 70.6373 25.7968 70.4591 25.7968ZM72.3473 27.0337C72.3473 26.5625 72.5081 26.163 72.8296 25.835C73.1512 25.5071 73.5443 25.3432 74.0091 25.3432C74.4771 25.3432 74.8727 25.5071 75.1959 25.835C75.519 26.163 75.6806 26.5625 75.6806 27.0337C75.6806 27.5017 75.519 27.8996 75.1959 28.2276C74.8727 28.5555 74.4771 28.7194 74.0091 28.7194C73.5443 28.7194 73.1512 28.5555 72.8296 28.2276C72.5081 27.8996 72.3473 27.5017 72.3473 27.0337ZM73.1448 26.1407C72.9092 26.3858 72.7914 26.6835 72.7914 27.0337C72.7914 27.3839 72.9084 27.6808 73.1424 27.9243C73.3764 28.1679 73.6653 28.2896 74.0091 28.2896C74.353 28.2896 74.6427 28.1679 74.8783 27.9243C75.1139 27.6808 75.2317 27.3839 75.2317 27.0337C75.2317 26.6835 75.1139 26.3858 74.8783 26.1407C74.6427 25.8955 74.353 25.773 74.0091 25.773C73.6685 25.773 73.3804 25.8955 73.1448 26.1407ZM77.3969 28.0795C77.5433 28.2196 77.7216 28.2896 77.9317 28.2896C78.1419 28.2896 78.3201 28.2196 78.4666 28.0795C78.613 27.9394 78.6863 27.7596 78.6863 27.5399V25.3814H79.1351V27.5399C79.1351 27.8901 79.0182 28.1742 78.7842 28.3923C78.5502 28.6104 78.266 28.7194 77.9317 28.7194C77.5974 28.7194 77.3133 28.6104 77.0793 28.3923C76.8453 28.1742 76.7283 27.8901 76.7283 27.5399V25.3814H77.1772V27.5399C77.1772 27.7596 77.2504 27.9394 77.3969 28.0795ZM81.711 25.3814C82.0358 25.3814 82.2801 25.4817 82.4441 25.6822C82.608 25.8828 82.69 26.1264 82.69 26.4129C82.69 26.6994 82.608 26.9422 82.4441 27.1411C82.2801 27.3401 82.0358 27.4396 81.711 27.4396H80.8467V28.6717H80.3978V25.3814H81.711ZM81.7063 25.7968H80.8467V27.0241H81.6824C81.8702 27.0241 82.0111 26.9644 82.105 26.8451C82.1989 26.7257 82.2459 26.5816 82.2459 26.4129C82.2459 26.2441 82.2005 26.0993 82.1098 25.9783C82.0191 25.8573 81.8846 25.7968 81.7063 25.7968Z" fill="white"/>
</svg>
