<svg width="146" height="55" viewBox="0 0 146 55" fill="none" xmlns="http://www.w3.org/2000/svg">
<path d="M42.983 12.1304L44.3021 41.6841H38.0861L37.6252 30.4096L22.9075 52.3602L16.519 31.7566L6.74119 55H0L17.3477 13.7608L24.9588 38.2323L42.983 12.1304Z" fill="black"/>
<path d="M29.0785 0C44.1065 0 56.2891 12.2058 56.2891 27.2625C56.2891 38.6552 49.3142 48.4157 39.4094 52.4914L39.4093 48.6386C47.3224 44.7926 52.7781 36.6659 52.7781 27.2625C52.7781 14.1486 42.1674 3.51774 29.0785 3.51774C15.9895 3.51774 5.37885 14.1486 5.37885 27.2625C5.37885 32.7426 7.23178 37.7891 10.3442 41.8074L7.94462 41.807L7.9442 44.4361C4.14475 39.7483 1.8678 33.7718 1.8678 27.2625C1.8678 12.2058 14.0504 0 29.0785 0Z" fill="black"/>
<path fill-rule="evenodd" clip-rule="evenodd" d="M39.7061 48.5217L38.058 47.6946H34.4556V53.2084H38.058L39.7061 52.3604V48.5217Z" fill="black"/>
<path d="M34.4557 48.5215H30.8717V49.8999H34.4557V48.5215Z" fill="black"/>
<path d="M34.4557 51.0027H30.8717V52.3811H34.4557V51.0027Z" fill="black"/>
<path d="M72.0855 22.3193L70.8935 19.6241L70.3492 22.3193L68.587 31.2081H65.7105L69.6495 12.1606H69.9605L75.1953 22.4489L76.7502 25.8956L78.3051 22.4489L83.4363 12.1606H83.7213L87.8159 31.2081H84.9653L83.0476 22.3193L82.4774 19.6241L81.4408 22.3193L76.828 31.2081H76.6725L72.0855 22.3193ZM95.2607 31.4673C94.1895 31.4673 93.2005 31.2124 92.2934 30.7028C91.3864 30.1931 90.6608 29.4675 90.1166 28.5259C89.5724 27.5843 89.3003 26.483 89.3003 25.2218C89.3003 23.9778 89.5378 22.8894 90.0129 21.9565C90.488 21.0235 91.1661 20.2979 92.0472 19.7796C92.9283 19.2613 93.9649 19.0022 95.157 19.0022C95.8481 19.0022 96.496 19.1231 97.1006 19.365C97.7053 19.6069 98.215 19.9049 98.6296 20.2591C99.0443 20.6132 99.3207 20.9631 99.4589 21.3086L99.5107 19.3132H102.18V31.2081H99.5366L99.4848 29.109C99.1911 29.731 98.6555 30.2795 97.8781 30.7546C97.1006 31.2297 96.2282 31.4673 95.2607 31.4673ZM95.7272 29.1349C96.7119 29.1349 97.5412 28.7937 98.215 28.1113C98.8888 27.4288 99.2257 26.5348 99.2257 25.4291V25.2477C99.2257 24.5048 99.0702 23.8396 98.7592 23.2522C98.4482 22.6648 98.0249 22.207 97.4894 21.8787C96.9538 21.5505 96.3664 21.3864 95.7272 21.3864C94.6214 21.3864 93.7663 21.7448 93.1616 22.4618C92.5569 23.1788 92.2546 24.1074 92.2546 25.2477C92.2546 26.4052 92.5526 27.3425 93.1486 28.0594C93.7447 28.7764 94.6042 29.1349 95.7272 29.1349ZM105.26 19.3132H108.058V21.6455C108.335 20.8508 108.784 20.2115 109.406 19.7278C110.028 19.2441 110.736 19.0022 111.531 19.0022C112.084 19.0022 112.464 19.054 112.671 19.1577L112.282 21.9824C112.127 21.8787 111.79 21.8269 111.272 21.8269C110.46 21.8269 109.721 22.0861 109.056 22.6044C108.391 23.1227 108.058 23.9519 108.058 25.0922V31.2081H105.26V19.3132ZM114.15 19.3132H117.337L119.903 24.6775L120.732 26.8285L121.561 24.6775L124.101 19.3132H127.211L120.965 31.2081H120.421L114.15 19.3132ZM134.312 31.4673C132.895 31.4673 131.711 31.1865 130.761 30.625C129.811 30.0635 129.111 29.312 128.662 28.3704C128.213 27.4288 127.988 26.3966 127.988 25.2736C127.988 24.0124 128.252 22.9067 128.779 21.9565C129.306 21.0063 130.036 20.2763 130.969 19.7667C131.901 19.257 132.955 19.0022 134.13 19.0022C135.961 19.0022 137.322 19.5075 138.212 20.5182C139.102 21.5289 139.546 22.9499 139.546 24.7812C139.546 25.2477 139.52 25.7314 139.469 26.2324H130.917C131.107 27.2863 131.483 28.0465 132.044 28.513C132.606 28.9794 133.387 29.2127 134.389 29.2127C135.219 29.2127 135.901 29.1436 136.437 29.0053C136.972 28.8671 137.465 28.6771 137.914 28.4352L138.769 30.4307C138.337 30.7071 137.75 30.949 137.007 31.1563C136.264 31.3636 135.365 31.4673 134.312 31.4673ZM136.825 24.2888C136.843 23.2177 136.609 22.4618 136.126 22.0213C135.642 21.5807 134.951 21.3604 134.052 21.3604C132.238 21.3604 131.193 22.3366 130.917 24.2888H136.825ZM142.708 12.1606H145.481V31.2081H142.708V12.1606ZM65.4333 36.9252H67.3439C67.8163 36.9252 68.1718 37.0711 68.4103 37.3628C68.6488 37.6546 68.7681 38.009 68.7681 38.4258C68.7681 38.8426 68.6488 39.1958 68.4103 39.4853C68.1718 39.7748 67.8163 39.9195 67.3439 39.9195H66.0864V41.7119H65.4333V36.9252ZM67.3369 37.5296H66.0864V39.3151H67.3022C67.5755 39.3151 67.7804 39.2282 67.917 39.0545C68.0537 38.8809 68.122 38.6713 68.122 38.4258C68.122 38.1803 68.056 37.9696 67.924 37.7936C67.792 37.6176 67.5963 37.5296 67.3369 37.5296ZM69.9103 39.329C69.9103 38.6435 70.1442 38.0622 70.612 37.5852C71.0798 37.1081 71.6518 36.8696 72.328 36.8696C73.0088 36.8696 73.5843 37.1081 74.0544 37.5852C74.5245 38.0622 74.7596 38.6435 74.7596 39.329C74.7596 40.0098 74.5245 40.5888 74.0544 41.0658C73.5843 41.5429 73.0088 41.7814 72.328 41.7814C71.6518 41.7814 71.0798 41.5429 70.612 41.0658C70.1442 40.5888 69.9103 40.0098 69.9103 39.329ZM71.0705 38.0298C70.7277 38.3864 70.5564 38.8195 70.5564 39.329C70.5564 39.8384 70.7266 40.2703 71.067 40.6247C71.4074 40.979 71.8278 41.1561 72.328 41.1561C72.8282 41.1561 73.2497 40.979 73.5924 40.6247C73.9351 40.2703 74.1065 39.8384 74.1065 39.329C74.1065 38.8195 73.9351 38.3864 73.5924 38.0298C73.2497 37.6732 72.8282 37.4948 72.328 37.4948C71.8324 37.4948 71.4132 37.6732 71.0705 38.0298ZM81.0498 36.9252H81.7445L80.1258 41.7119H79.563L78.7154 38.7245L77.8748 41.7119H77.3121L75.6933 36.9252H76.3881L77.59 40.6698L78.4723 37.5713H78.9655L79.8479 40.6698L81.0498 36.9252ZM83.0812 36.9252H85.9157V37.5296H83.7273V39.058H85.6378V39.6624H83.7273V41.1075H85.9852V41.7119H83.0812V36.9252ZM89.5937 39.8986L90.872 41.7119H90.087L88.8503 39.9195H88.239V41.7119H87.5859V36.9252H89.427C89.8994 36.9252 90.2537 37.0711 90.4899 37.3628C90.7261 37.6546 90.8442 38.009 90.8442 38.4258C90.8442 38.8149 90.7412 39.1483 90.5351 39.4262C90.329 39.7041 90.0152 39.8616 89.5937 39.8986ZM89.4061 37.5296H88.239V39.3151H89.3783C89.6516 39.3151 89.8531 39.2294 89.9828 39.058C90.1125 38.8866 90.1773 38.6759 90.1773 38.4258C90.1773 38.1803 90.1136 37.9696 89.9862 37.7936C89.8589 37.6176 89.6655 37.5296 89.4061 37.5296ZM98.5754 37.5018L98.1099 37.9325C97.7764 37.6361 97.392 37.4879 96.9566 37.4879C96.461 37.4879 96.0419 37.6674 95.6991 38.0263C95.3564 38.3853 95.185 38.8195 95.185 39.329C95.185 39.8384 95.3564 40.2715 95.6991 40.6281C96.0419 40.9848 96.461 41.1631 96.9566 41.1631C97.392 41.1631 97.7509 41.0461 98.0335 40.8122C98.316 40.5783 98.4665 40.2645 98.485 39.8709H97.1234V39.3081H99.2215C99.2215 40.1279 99.02 40.7451 98.617 41.1596C98.2141 41.5741 97.6606 41.7814 96.9566 41.7814C96.2804 41.7814 95.7084 41.5429 95.2406 41.0658C94.7728 40.5888 94.5389 40.0098 94.5389 39.329C94.5389 38.6435 94.7728 38.0622 95.2406 37.5852C95.7084 37.1081 96.2804 36.8696 96.9566 36.8696C97.5819 36.8696 98.1215 37.0803 98.5754 37.5018ZM102.691 39.8986L103.969 41.7119H103.184L101.948 39.9195H101.336V41.7119H100.683V36.9252H102.524C102.997 36.9252 103.351 37.0711 103.587 37.3628C103.823 37.6546 103.942 38.009 103.942 38.4258C103.942 38.8149 103.839 39.1483 103.632 39.4262C103.426 39.7041 103.112 39.8616 102.691 39.8986ZM102.503 37.5296H101.336V39.3151H102.476C102.749 39.3151 102.95 39.2294 103.08 39.058C103.21 38.8866 103.275 38.6759 103.275 38.4258C103.275 38.1803 103.211 37.9696 103.084 37.7936C102.956 37.6176 102.763 37.5296 102.503 37.5296ZM105.25 39.329C105.25 38.6435 105.484 38.0622 105.952 37.5852C106.42 37.1081 106.992 36.8696 107.668 36.8696C108.349 36.8696 108.924 37.1081 109.395 37.5852C109.865 38.0622 110.1 38.6435 110.1 39.329C110.1 40.0098 109.865 40.5888 109.395 41.0658C108.924 41.5429 108.349 41.7814 107.668 41.7814C106.992 41.7814 106.42 41.5429 105.952 41.0658C105.484 40.5888 105.25 40.0098 105.25 39.329ZM106.411 38.0298C106.068 38.3864 105.897 38.8195 105.897 39.329C105.897 39.8384 106.067 40.2703 106.407 40.6247C106.748 40.979 107.168 41.1561 107.668 41.1561C108.168 41.1561 108.59 40.979 108.933 40.6247C109.275 40.2703 109.447 39.8384 109.447 39.329C109.447 38.8195 109.275 38.3864 108.933 38.0298C108.59 37.6732 108.168 37.4948 107.668 37.4948C107.173 37.4948 106.753 37.6732 106.411 38.0298ZM112.597 40.8504C112.81 41.0542 113.069 41.1561 113.375 41.1561C113.68 41.1561 113.94 41.0542 114.153 40.8504C114.366 40.6467 114.472 40.385 114.472 40.0654V36.9252H115.126V40.0654C115.126 40.5749 114.955 40.9882 114.615 41.3055C114.274 41.6228 113.861 41.7814 113.375 41.7814C112.888 41.7814 112.475 41.6228 112.135 41.3055C111.794 40.9882 111.624 40.5749 111.624 40.0654V36.9252H112.277V40.0654C112.277 40.385 112.384 40.6467 112.597 40.8504ZM118.873 36.9252C119.345 36.9252 119.701 37.0711 119.939 37.3628C120.178 37.6546 120.297 38.009 120.297 38.4258C120.297 38.8426 120.178 39.1958 119.939 39.4853C119.701 39.7748 119.345 39.9195 118.873 39.9195H117.615V41.7119H116.962V36.9252H118.873ZM118.866 37.5296H117.615V39.3151H118.831C119.105 39.3151 119.309 39.2282 119.446 39.0545C119.583 38.8809 119.651 38.6713 119.651 38.4258C119.651 38.1803 119.585 37.9696 119.453 37.7936C119.321 37.6176 119.125 37.5296 118.866 37.5296Z" fill="black"/>
</svg>
